<?xml version="1.0" encoding="utf-8"?>
<!-- Generator: Adobe Illustrator 16.0.0, SVG Export Plug-In . SVG Version: 6.00 Build 0)  -->
<!DOCTYPE svg PUBLIC "-//W3C//DTD SVG 1.1//EN" "http://www.w3.org/Graphics/SVG/1.1/DTD/svg11.dtd">
<svg version="1.1" id="Layer_1" xmlns="http://www.w3.org/2000/svg" xmlns:xlink="http://www.w3.org/1999/xlink" x="0px" y="0px"
	 width="165px" height="165px" viewBox="0 0 165 165" enable-background="new 0 0 165 165" xml:space="preserve">
<g>
	<path stroke="#000000" stroke-width="2" stroke-miterlimit="10" d="M41.119,4.59c0,0,2.427,5.254,6.85,9.179
		c3.078,6.045,8.201,12.425,16.379,13.763c0.019,0.003,0.037,0.003,0.056,0.002c0.02,0,0.038-0.002,0.058-0.002
		c2.846,0,4.98,0.612,6.403,1.834C72.288,30.588,73,32.421,73,34.864c0,2.444-0.608,4.276-1.823,5.498
		c-1.215,1.221-3.037,1.832-5.466,1.832c-0.557,0-1.252-0.044-2.085-0.134s-1.804-0.225-2.914-0.405
		c-1.111-0.178-2.084-0.313-2.917-0.403s-1.527-0.135-2.081-0.135c-2.224,0-4.081,0.611-5.573,1.833
		c-1.492,1.222-2.619,3.054-3.383,5.497c-0.348,1.078-0.626,2.714-0.835,4.906c-0.208,2.192-0.347,4.941-0.415,8.246v6.899v6.899
		l-0.624,8.732L44.26,92.86v16.602v16.602c0,5.031,0.268,9.38,0.806,13.045c0.538,3.666,1.345,6.648,2.422,8.947
		c1.075,2.301,2.628,4.349,4.658,6.146c2.031,1.797,4.539,3.341,7.524,4.635c2.776,1.223,5.588,2.139,8.435,2.75
		c2.846,0.609,5.728,0.914,8.644,0.914c3.816,0,7.357-0.377,10.62-1.132c3.264-0.754,6.249-1.885,8.957-3.395
		c2.707-1.509,4.937-3.278,6.689-5.309s3.027-4.321,3.827-6.873c0.797-2.551,1.412-5.451,1.847-8.704
		c0.434-3.252,0.686-6.855,0.756-10.809V98.574V70.869c0-5.461-0.034-9.737-0.103-12.828c-0.067-3.091-0.17-4.996-0.307-5.715
		c-0.615-3.665-1.795-6.414-3.539-8.247s-4.051-2.749-6.923-2.749c-0.479,0-1.06,0.029-1.743,0.086
		c-0.683,0.057-1.469,0.143-2.356,0.257c-1.301,0.174-2.412,0.304-3.335,0.39c-0.923,0.086-1.658,0.129-2.204,0.129
		c-0.889,0-1.718-0.177-2.487-0.531c-0.769-0.354-1.479-0.884-2.127-1.591c-0.65-0.708-1.138-1.47-1.463-2.284
		c-0.325-0.815-0.487-1.684-0.487-2.605c0-2.006,0.49-3.549,1.444-4.732c0.953-1.183,2.371-2.005,4.228-2.57
		c97.584-29.706-28.979-11.403-7.93-7.315C82.822,21.091,29.821-4.91,41.119,4.59z"/>
	<g>
		<ellipse fill="#FFFFFF" cx="57.806" cy="135.159" rx="8.574" ry="10.784"/>
		<ellipse cx="56.167" cy="137.176" rx="3.909" ry="4.859"/>
	</g>
	<g>
		<ellipse fill="#FFFFFF" cx="95.852" cy="135.159" rx="8.573" ry="10.784"/>
		<ellipse cx="97.491" cy="137.177" rx="3.909" ry="4.858"/>
	</g>
</g>
</svg>
