<?xml version="1.0" encoding="utf-8"?>
<!-- Generator: Adobe Illustrator 16.0.0, SVG Export Plug-In . SVG Version: 6.00 Build 0)  -->
<!DOCTYPE svg PUBLIC "-//W3C//DTD SVG 1.1//EN" "http://www.w3.org/Graphics/SVG/1.1/DTD/svg11.dtd">
<svg version="1.1" id="Layer_1" xmlns="http://www.w3.org/2000/svg" xmlns:xlink="http://www.w3.org/1999/xlink" x="0px" y="0px"
	 width="1024px" height="1024px" viewBox="0 0 1024 1024" enable-background="new 0 0 1024 1024" xml:space="preserve">
<rect fill="#FFFC00" width="1024" height="1024"/>
<path stroke="#000000" stroke-width="2" stroke-miterlimit="10" d="M191.349,285.667c-0.44-0.017-0.885-0.026-1.332-0.026
	c-0.817,0-2.008,0-3.573,0 M344.231,100.631c0,0,11.403,24.682,32.182,43.121c14.462,28.399,38.531,58.373,76.948,64.661
	c0.086,0.015,0.175,0.015,0.264,0.011c0.089-0.003,0.179-0.012,0.267-0.012c13.372,0,23.401,2.874,30.087,8.616
	c6.687,5.742,10.031,14.354,10.031,25.829c0,11.482-2.856,20.09-8.566,25.829c-5.708,5.738-14.269,8.607-25.679,8.607
	c-2.614,0-5.879-0.209-9.792-0.631c-3.915-0.421-8.478-1.055-13.691-1.904c-5.222-0.837-9.79-1.47-13.705-1.892
	c-3.914-0.421-7.174-0.635-9.779-0.635c-10.444,0-19.169,2.871-26.18,8.611c-7.01,5.74-12.307,14.35-15.894,25.825
	c-1.636,5.065-2.944,12.751-3.922,23.05c-0.978,10.3-1.629,23.214-1.951,38.74v32.413v32.413l-2.933,41.023l-2.932,41.026v77.996
	v77.997c0,23.638,1.26,44.065,3.786,61.286c2.526,17.222,6.316,31.232,11.375,42.036c5.052,10.81,12.35,20.43,21.889,28.871
	c9.542,8.44,21.324,15.696,35.347,21.775c13.042,5.743,26.251,10.048,39.625,12.916c13.374,2.867,26.912,4.299,40.611,4.299
	c17.93,0,34.565-1.772,49.895-5.318c15.332-3.541,29.359-8.858,42.078-15.947c12.72-7.089,23.196-15.404,31.431-24.943
	c8.232-9.536,14.224-20.3,17.978-32.289c3.746-11.982,6.637-25.612,8.676-40.894c2.039-15.279,3.225-32.208,3.551-50.777V542.18
	V412.015c0-25.657-0.159-45.746-0.479-60.266c-0.319-14.52-0.801-23.471-1.443-26.851c-2.891-17.218-8.432-30.133-16.624-38.742
	c-8.194-8.611-19.034-12.915-32.525-12.915c-2.249,0-4.979,0.135-8.188,0.405c-3.21,0.269-6.9,0.673-11.075,1.208
	c-6.107,0.818-11.328,1.428-15.667,1.833c-4.336,0.404-7.789,0.606-10.355,0.606c-4.174,0-8.068-0.832-11.685-2.493
	c-3.612-1.662-6.944-4.153-9.994-7.474c-3.056-3.325-5.344-6.904-6.869-10.731c-1.527-3.83-2.29-7.91-2.29-12.241
	c0-9.426,2.304-16.675,6.782-22.231c4.479-5.557,11.142-9.42,19.865-12.076c458.457-139.561-136.146-53.573-37.254-34.366
	C540.156,178.152,291.154,55.995,344.231,100.631z"/>
<g>
	<ellipse fill="#FFFFFF" cx="422.629" cy="714.057" rx="40.279" ry="50.668"/>
	<ellipse cx="414.929" cy="723.533" rx="18.363" ry="22.83"/>
</g>
<g>
	<ellipse fill="#FFFFFF" cx="601.371" cy="714.057" rx="40.279" ry="50.668"/>
	<ellipse cx="609.071" cy="723.534" rx="18.362" ry="22.829"/>
</g>
<g>
	<path fill="#29ABE2" d="M364.744,384.113v62.625l-5.866,79.252v150.677c0,45.665,5.043,78.935,15.162,99.796
		c10.106,20.889,29.189,37.185,57.237,48.93c26.083,11.094,52.837,16.628,80.234,16.628c35.864,0,66.533-6.848,91.973-20.543
		c25.44-13.696,41.903-32.129,49.408-55.286c7.49-23.145,11.571-52.672,12.229-88.543V426.195c0-49.566-0.637-77.621-1.924-84.15
		c-5.78-33.27-22.17-49.898-49.148-49.898c-4.499,0-10.916,0.518-19.263,1.553c-12.216,1.579-20.889,2.362-26.024,2.362
		c-8.347,0-15.58-3.211-21.678-9.634c-6.111-6.423-9.156-13.815-9.156-22.189c0-23.144,14.339-34.716,43.05-34.716
		c4.559,0,9.131,0.345,13.702,0.982l57.721,7.83c14.346,1.951,30.656,2.933,48.923,2.933c17.61,0,32.288-0.902,44.032-2.707
		l42.068-6.33c11.745-1.805,19.574-2.708,23.482-2.708c27.398,0,41.094,11.108,41.094,33.27c0,22.188-13.377,33.27-40.111,33.27
		h-10.763c-1.957,0-5.229,0-9.787,0c-19.567,0-31.644,9.754-36.202,29.262c-4.572,19.508-6.848,69.565-6.848,150.185v170.688
		c0,42.254-1.314,72.816-3.915,91.688c-5.229,32.5-16.31,60.78-33.263,84.84c-39.136,56.573-105.351,84.854-198.624,84.854
		c-114.812,0-188.836-37.384-222.099-112.164c-10.444-22.76-15.66-58.18-15.66-106.299c0-23.41,0.982-58.033,2.939-103.871
		c1.958-45.837,2.933-80.46,2.933-103.883v-51.69c0-47.456-0.338-74.117-0.976-79.969c-4.572-35.751-17.292-53.641-38.16-53.641
		c-1.314,0-3.596,0-6.848,0c-3.271,0-6.21,0-8.805,0c-2.614,0-6.854,0-12.72,0c-27.397,0-41.093-11.081-41.093-33.27
		c0-22.162,12.381-33.27,37.178-33.27c10.424,0,21.525,0.982,33.263,2.933c31.956,5.229,61.643,7.83,89.04,7.83
		c28.035,0,60.322-2.933,96.863-8.798c7.83-1.301,16.296-1.964,25.44-1.964c26.741,0,40.117,11.108,40.117,33.27
		c0,22.188-11.426,33.27-34.245,33.27c-5.229,0-13.058-0.81-23.482-2.455c-10.444-1.619-18.273-2.442-23.482-2.442
		c-20.888,0-34.902,11.095-42.075,33.27C367.345,334.215,365.388,354.121,364.744,384.113z"/>
</g>
</svg>
